<svg width="54" height="58" viewBox="0 0 54 58" fill="none" xmlns="http://www.w3.org/2000/svg">
<path d="M0.839686 56.582C1.25379 55.7742 1.61014 54.6083 2.00692 53.7905C3.6698 50.3364 6.26906 48.1758 10.0525 47.8425C14.704 47.044 19.5807 47.1652 24.5403 46.7689C29.0558 45.8946 32.5887 45.6914 37.4164 42.7179C37.9093 42.4143 38.2209 41.9066 39.394 41.0956C36.5819 41.2937 34.0627 41.5164 31.2543 41.4529C21.4948 41.2006 12.828 32.8626 12.1548 22.5988C11.3776 10.7017 19.6787 2.68102 28.0793 0.949043C28.9422 0.703695 29.7106 0.560771 30.5377 0.502499C31.3648 0.444228 33.2676 0.387132 34.0714 0.504631C38.2269 0.793932 42.1983 2.33957 45.4626 4.938C48.7269 7.53642 51.131 11.0658 52.3583 15.0612C52.7441 16.3689 53.1759 17.6204 53.2588 18.7976L53.3553 20.1674C53.529 22.633 53.0208 25.4871 51.9558 27.8312C46.7096 39.2573 38.3363 46.8826 25.4488 48.4802C20.7137 49.0697 15.9183 49.1183 11.166 49.5421C6.01034 49.9832 3.38162 52.5488 2.57186 57.5723C1.86106 57.4722 0.623029 58.3047 0.839686 56.582ZM27.4476 14.6361C27.1872 10.9393 24.6576 8.0698 21.8045 8.3153C19.3204 8.52924 16.247 12.8057 16.3792 15.8609C16.4864 18.4061 18.7327 20.3223 21.4897 20.1281C25.1817 19.9124 27.6373 17.6427 27.4476 14.6361ZM41.4268 8.71257C41.2485 5.78861 37.8468 3.67571 33.7952 3.97784C31.1154 4.16664 29.2972 6.1245 29.4262 8.66263C29.5679 11.5391 32.7626 15.0403 35.1013 14.8867C38.4731 14.688 41.6043 11.6255 41.4268 8.71257ZM36.1079 37.6683C40.1055 37.3867 43.2245 34.8589 43.0686 32.0168C42.9018 29.0197 39.2946 26.3484 35.8483 26.6691C33.4977 26.8903 30.9201 30.7315 31.1791 33.6219C31.4069 36.1475 33.4832 37.8532 36.1079 37.6683ZM22.3776 23.6861C19.0669 23.886 17.2682 25.57 17.4439 28.2994C17.6572 31.3266 21.4577 35.2467 24.0685 35.1017C26.8255 34.9075 28.7041 32.1556 28.4716 28.5403C28.239 24.9249 26.4383 23.4334 22.3611 23.6873L22.3776 23.6861ZM49.981 19.7003C49.6901 15.5718 48.2931 13.9906 45.1273 14.2025C42.3703 14.3968 39.1359 17.9616 39.3818 20.586C39.6276 23.2105 43.1516 26.1156 45.8184 25.9778C49.098 25.8079 50.2906 24.0165 49.981 19.7003ZM34.8413 20.366C34.8413 20.366 34.3038 18.9045 32.9501 18.6956C31.3535 18.6947 30.2853 20.1567 30.8187 21.6708C31.126 22.5724 32.0622 23.2177 32.966 23.2263C33.8699 23.2349 35.1106 21.9896 34.8413 20.366Z" fill="#CB9E0C"/>
</svg>
