<svg width="25" height="21" viewBox="0 0 25 21" fill="none" xmlns="http://www.w3.org/2000/svg">
<path d="M0 2C0 0.896 0.896 0 2 0H22.75C23.854 0 24.75 0.896 24.75 2C24.75 3.104 23.854 4 22.75 4H2C0.896 4 0 3.104 0 2ZM22.75 8.5H2C0.896 8.5 0 9.396 0 10.5C0 11.604 0.896 12.5 2 12.5H22.75C23.854 12.5 24.75 11.604 24.75 10.5C24.75 9.396 23.855 8.5 22.75 8.5ZM22.75 17H2C0.896 17 0 17.896 0 19C0 20.104 0.896 21 2 21H22.75C23.854 21 24.75 20.104 24.75 19C24.75 17.896 23.855 17 22.75 17Z" fill="#cb9e0c"/>
</svg>
