<svg width="40" height="40" viewBox="0 0 100 100" fill="none" xmlns="http://www.w3.org/2000/svg">
<path d="M76.6886 29.3078C79.9985 29.3078 82.6818 26.6245 82.6818 23.3145C82.6818 20.0046 79.9985 17.3213 76.6886 17.3213C73.3786 17.3213 70.6953 20.0046 70.6953 23.3145C70.6953 26.6245 73.3786 29.3078 76.6886 29.3078Z" fill="#C69A0C"/>
<path d="M50.0158 24.3269C35.8357 24.3269 24.3616 35.8197 24.3616 49.981C24.3616 64.1549 35.8544 75.6352 50.0158 75.6352C64.1959 75.6352 75.6699 64.1424 75.6699 49.981C75.6699 35.801 64.1771 24.3269 50.0158 24.3269ZM50.0158 66.6359C40.8165 66.6359 33.3609 59.1803 33.3609 49.981C33.3609 40.7818 40.8165 33.3262 50.0158 33.3262C59.215 33.3262 66.6706 40.7755 66.6706 49.981C66.6706 59.1803 59.215 66.6359 50.0158 66.6359Z" fill="#C69A0C"/>
<path d="M70.6141 0.316419C61.4148 -0.114795 38.6292 -0.0960468 29.4175 0.316419C21.3244 0.697638 14.1875 2.65372 8.43796 8.40325C-1.18 18.0212 0.0511493 30.9764 0.0511493 49.9811C0.0511493 69.4295 -1.03001 82.0909 8.43796 91.5589C18.0872 101.208 31.2361 99.9457 50.0158 99.9457C73.0326 99.9457 98.2181 102.152 99.6804 70.5794C100.112 61.3739 100.093 38.5945 99.6804 29.389C98.8555 11.8342 89.4313 1.19135 70.6141 0.316419V0.316419ZM85.1691 85.1969C78.8634 91.5026 70.1204 90.9402 49.8845 90.9402C29.055 90.9402 20.6994 91.2464 14.6 85.1344C7.57553 78.1475 8.85042 66.9234 8.85042 49.9186C8.85042 8.35951 11.2315 8.89071 49.822 8.89071L50.0095 9.0157C91.3936 9.0157 90.9686 11.6967 90.9686 49.9811C90.9749 70.5669 91.3686 78.9724 85.1691 85.1969V85.1969Z" fill="#C69A0C"/>
</svg>
