<svg width="30" height="30" viewBox="0 0 40 40" fill="none" xmlns="http://www.w3.org/2000/svg">
<path d="M28.7212 18.4583L15.6303 10.2764C15.0698 9.92605 14.3633 9.90739 13.7852 10.2279C13.2071 10.5484 12.8485 11.1572 12.8485 11.8182V28.1818C12.8485 28.8428 13.2071 29.4516 13.7852 29.7721C14.0599 29.9244 14.3634 30 14.6665 30C15.0014 30 15.336 29.9075 15.6302 29.7236L28.7211 21.5419C29.2527 21.2097 29.5756 20.627 29.5756 20.0001C29.5758 19.3732 29.2528 18.7905 28.7212 18.4583Z" fill="white"/>
<path d="M20 0C8.972 0 0 8.972 0 20C0 31.028 8.972 40 20 40C31.028 40 40 31.028 40 20C40 8.972 31.028 0 20 0ZM20 36.3636C10.977 36.3636 3.63636 29.0229 3.63636 20C3.63636 10.9771 10.977 3.63636 20 3.63636C29.023 3.63636 36.3636 10.9771 36.3636 20C36.3636 29.0229 29.0229 36.3636 20 36.3636Z" fill="white"/>
</svg>
