<svg width="43" height="35" viewBox="0 0 123 100" fill="none" xmlns="http://www.w3.org/2000/svg">
<path d="M60.4565 31.0346C52.4914 8.96651 88.3428 -12.0138 103.115 8.12694C103.115 8.12694 108.841 7.92134 119.291 2.29487C119.291 2.29487 116.799 10.2516 108.761 15.5173C108.761 15.5173 114.87 15.478 122.265 12.1818C122.265 12.1818 117.602 19.7379 110.368 24.8024C110.368 24.8024 110.207 36.1363 108.519 43.2103C106.831 50.2842 101.204 69.9783 84.3234 83.8048C67.4429 97.6308 46.8644 100.685 35.2086 99.8812C23.5527 99.0777 9.24464 94.6565 0 88.9491C0 88.9491 21.141 91.2002 36.7359 78.3385C36.7359 78.3385 20.9803 79.0617 13.5045 60.8949C13.5045 60.8949 18.8905 61.8597 24.6782 60.2521C24.6782 60.2521 4.82348 56.6344 4.58186 35.2524C4.58186 35.2524 11.0934 38.4677 15.9163 38.1463C15.9163 38.1463 -3.05458 23.6769 8.5209 4.94767C8.5209 4.94767 27.5067 30.1125 60.4565 31.0346Z" fill="#C69A0C"/>
</svg>
