<svg width="68" height="74" viewBox="0 0 68 74" fill="none" xmlns="http://www.w3.org/2000/svg">
<path d="M0.923965 72.2862C1.45101 71.2581 1.90454 69.7741 2.40954 68.7334C4.52593 64.3373 7.83407 61.5874 12.6494 61.1632C18.5695 60.1469 24.7761 60.3011 31.0883 59.7968C36.8354 58.6841 41.3319 58.4254 47.4762 54.6409C48.1035 54.2546 48.5 53.6084 49.9931 52.5762C46.414 52.8283 43.2078 53.1118 39.6334 53.031C27.2123 52.7098 16.1819 42.0978 15.325 29.0349C14.3358 13.8931 24.9008 3.68493 35.5925 1.4806C36.6908 1.16834 37.6688 0.986435 38.7215 0.912272C39.7741 0.838108 42.1959 0.765441 43.2189 0.914985C48.5077 1.28319 53.5623 3.25036 57.7168 6.55745C61.8714 9.86454 64.9311 14.3564 66.4931 19.4416C66.9842 21.1058 67.5336 22.6986 67.6392 24.197L67.762 25.9403C67.9831 29.0784 67.3363 32.7108 65.9808 35.6943C59.3039 50.2365 48.6469 59.9415 32.2447 61.9748C26.2182 62.725 20.115 62.7869 14.0665 63.3263C7.5048 63.8877 4.15916 67.153 3.12856 73.5466C2.2239 73.4192 0.648222 74.4787 0.923965 72.2862ZM34.7886 18.9005C34.4572 14.1955 31.2377 10.5434 27.6065 10.8558C24.4449 11.1281 20.5333 16.5709 20.7015 20.4593C20.838 23.6987 23.6969 26.1375 27.2058 25.8903C31.9047 25.6158 35.03 22.7271 34.7886 18.9005ZM52.5802 11.3615C52.3533 7.64005 48.024 4.9509 42.8674 5.33543C39.4567 5.57572 37.1427 8.06755 37.3068 11.2979C37.4871 14.9589 41.5531 19.4149 44.5296 19.2194C48.821 18.9666 52.8062 15.0688 52.5802 11.3615ZM45.8107 48.2142C50.8986 47.8558 54.8683 44.6386 54.6699 41.0213C54.4576 37.2069 49.8665 33.8071 45.4803 34.2152C42.4887 34.4968 39.2081 39.3855 39.5378 43.0643C39.8277 46.2787 42.4702 48.4496 45.8107 48.2142ZM28.3359 30.4187C24.1222 30.6731 21.833 32.8163 22.0566 36.2902C22.328 40.143 27.165 45.1322 30.4879 44.9477C33.9968 44.7004 36.3878 41.1981 36.0918 36.5967C35.7958 31.9954 33.504 30.097 28.3148 30.4202L28.3359 30.4187ZM63.4674 25.3458C63.0972 20.0914 61.3192 18.079 57.29 18.3487C53.7811 18.5959 49.6646 23.133 49.9775 26.4732C50.2904 29.8133 54.7755 33.5108 58.1695 33.3354C62.3436 33.1192 63.8615 30.8392 63.4674 25.3458ZM44.1987 26.193C44.1987 26.193 43.5147 24.3331 41.7918 24.0672C39.7597 24.0659 38.4002 25.9267 39.079 27.8537C39.4702 29.0012 40.6617 29.8225 41.812 29.8335C42.9624 29.8445 44.5415 28.2595 44.1987 26.193Z" fill="#CB9E0C"/>
</svg>
